<?xml version="1.0" encoding="UTF-8"?>
<!DOCTYPE svg PUBLIC "-//W3C//DTD SVG 1.1//EN" "http://www.w3.org/Graphics/SVG/1.1/DTD/svg11.dtd">
<svg xmlns="http://www.w3.org/2000/svg" version="1.1" width="512px" height="512px" style="shape-rendering:geometricPrecision; text-rendering:geometricPrecision; image-rendering:optimizeQuality; fill-rule:evenodd; clip-rule:evenodd" xmlns:xlink="http://www.w3.org/1999/xlink">
<g><path style="opacity:0.964" fill="#000000" d="M 511.5,71.5 C 511.5,128.167 511.5,184.833 511.5,241.5C 503.183,301.66 473.183,347.494 421.5,379C 402.611,389.699 382.444,396.533 361,399.5C 352.774,398.944 344.774,397.277 337,394.5C 322.705,423.471 302.539,447.637 276.5,467C 213.539,484.408 156.872,472.408 106.5,431C 91.7341,417.58 79.2341,402.413 69,385.5C 45.5228,336.859 22.3561,288.193 -0.5,239.5C -0.5,235.5 -0.5,231.5 -0.5,227.5C 16.1471,204.686 36.4804,185.853 60.5,171C 106.59,140.794 156.59,119.627 210.5,107.5C 210.082,95.1051 210.582,82.7718 212,70.5C 216.436,64.5184 222.269,60.3517 229.5,58C 261.648,45.5035 294.981,38.5035 329.5,37C 375.092,33.7716 420.092,37.4383 464.5,48C 479.784,51.8683 494.117,57.8683 507.5,66C 508.697,68.0153 510.03,69.8487 511.5,71.5 Z M 334.5,67.5 C 373.944,65.4601 412.944,68.6268 451.5,77C 461.008,79.6694 470.342,82.836 479.5,86.5C 480.667,136.497 480.833,186.497 480,236.5C 469.49,306.51 429.99,350.51 361.5,368.5C 358.167,367.667 354.833,366.833 351.5,366C 349.349,365.735 347.682,364.735 346.5,363C 352.821,334.584 353.155,306.084 347.5,277.5C 369.332,273.454 387.998,279.287 403.5,295C 416.76,299.538 424.76,295.038 427.5,281.5C 426.894,277.972 425.728,274.639 424,271.5C 399.581,247.709 370.747,240.043 337.5,248.5C 328.402,229.702 319.402,210.869 310.5,192C 323.788,191.245 334.955,186.079 344,176.5C 349.062,167.156 347.229,159.323 338.5,153C 334.594,151.566 330.594,151.233 326.5,152C 322.127,155.186 317.46,157.853 312.5,160C 307.72,161.03 303.387,160.03 299.5,157C 297.444,154.556 294.944,152.723 292,151.5C 285.333,137.5 278.667,123.5 272,109.5C 267.955,104.729 262.788,102.563 256.5,103C 251.463,102.337 246.463,102.504 241.5,103.5C 241.5,97.8333 241.5,92.1667 241.5,86.5C 271.649,75.5341 302.649,69.2008 334.5,67.5 Z M 234.5,134.5 C 239.544,134.173 244.544,134.506 249.5,135.5C 268.394,176.287 287.56,216.954 307,257.5C 331.394,318.131 322.394,373.131 280,422.5C 273.391,429.118 266.224,434.951 258.5,440C 199.286,451.117 149.786,434.284 110,389.5C 101.811,378.961 94.811,367.628 89,355.5C 70.3633,315.727 51.8633,275.893 33.5,236C 34.6512,234.177 35.8179,232.344 37,230.5C 58.4497,210.025 82.283,192.858 108.5,179C 148.213,157.265 190.213,142.432 234.5,134.5 Z"/></g>
<g><path style="opacity:0.951" fill="#000000" d="M 393.5,151.5 C 396.518,151.335 399.518,151.502 402.5,152C 406.336,154.084 410.003,156.417 413.5,159C 416.738,160.368 420.072,160.701 423.5,160C 428.187,157.301 432.853,154.634 437.5,152C 451.457,150.29 457.957,156.457 457,170.5C 453.159,178.671 446.993,184.504 438.5,188C 420.854,194.463 404.52,192.13 389.5,181C 382.977,175.996 380.81,169.496 383,161.5C 385.106,156.557 388.606,153.224 393.5,151.5 Z"/></g>
<g><path style="opacity:0.947" fill="#000000" d="M 233.5,215.5 C 243.275,214.524 252.608,216.024 261.5,220C 268.043,226.598 269.209,234.098 265,242.5C 258.166,248.922 250.333,250.255 241.5,246.5C 236.239,246.881 232.072,249.214 229,253.5C 223.927,266.623 215.094,270.123 202.5,264C 195.037,256.007 194.537,247.507 201,238.5C 208.683,226.308 219.516,218.641 233.5,215.5 Z"/></g>
<g><path style="opacity:0.949" fill="#000000" d="M 133.5,262.5 C 142.773,261.74 151.773,262.907 160.5,266C 167.956,272.605 169.456,280.438 165,289.5C 158.258,295.791 150.592,297.124 142,293.5C 136.534,293.733 132.2,296.066 129,300.5C 122.453,314.938 112.787,317.604 100,308.5C 95.5144,300.713 95.8478,293.047 101,285.5C 108.693,273.293 119.527,265.627 133.5,262.5 Z"/></g>
<g><path style="opacity:0.954" fill="#000000" d="M 254.5,304.5 C 273.391,304.938 279.224,313.938 272,331.5C 250.7,371.565 217.533,387.732 172.5,380C 158.878,378.395 152.711,370.895 154,357.5C 156.752,350.745 161.752,347.079 169,346.5C 205.646,357.51 231.646,345.51 247,310.5C 249.114,307.879 251.614,305.879 254.5,304.5 Z"/></g>
</svg>
