<?xml version="1.0" encoding="UTF-8"?>
<!DOCTYPE svg PUBLIC "-//W3C//DTD SVG 1.1//EN" "http://www.w3.org/Graphics/SVG/1.1/DTD/svg11.dtd">
<svg xmlns="http://www.w3.org/2000/svg" version="1.1" width="949px" height="397px" style="shape-rendering:geometricPrecision; text-rendering:geometricPrecision; image-rendering:optimizeQuality; fill-rule:evenodd; clip-rule:evenodd" xmlns:xlink="http://www.w3.org/1999/xlink">
<g><path style="opacity:0.988" fill="#000000" d="M 3.5,5.5 C 37.1667,5.5 70.8333,5.5 104.5,5.5C 104.5,133.833 104.5,262.167 104.5,390.5C 70.8333,390.5 37.1667,390.5 3.5,390.5C 3.5,262.167 3.5,133.833 3.5,5.5 Z"/></g>
<g><path style="opacity:0.988" fill="#000000" d="M 131.5,5.5 C 175.072,5.16979 218.572,5.50312 262,6.5C 270.414,64.1466 278.748,121.813 287,179.5C 294.61,121.504 302.11,63.5044 309.5,5.5C 353.5,5.5 397.5,5.5 441.5,5.5C 441.5,133.833 441.5,262.167 441.5,390.5C 411.833,390.5 382.167,390.5 352.5,390.5C 352.667,309.166 352.5,227.833 352,146.5C 341.008,227.966 329.841,309.133 318.5,390C 297.26,390.826 276.094,390.66 255,389.5C 243.386,310.538 232.053,231.538 221,152.5C 220.442,231.833 219.942,311.167 219.5,390.5C 190.167,390.5 160.833,390.5 131.5,390.5C 131.5,262.167 131.5,133.833 131.5,5.5 Z"/></g>
<g><path style="opacity:0.988" fill="#000000" d="M 467.5,5.5 C 507.835,5.33334 548.168,5.50001 588.5,6C 611.402,5.76555 633.735,9.09888 655.5,16C 678.506,25.8317 692.673,42.9984 698,67.5C 699.531,81.7936 700.531,96.1269 701,110.5C 701.667,173.833 701.667,237.167 701,300.5C 700.459,313.205 699.459,325.871 698,338.5C 693.704,362.465 679.87,377.965 656.5,385C 649.236,386.704 641.903,388.038 634.5,389C 578.849,390.434 523.182,390.934 467.5,390.5C 467.5,262.167 467.5,133.833 467.5,5.5 Z M 569.5,72.5 C 575.956,72.4462 582.29,73.2795 588.5,75C 593.838,77.0073 597.004,80.8406 598,86.5C 599.147,122.135 599.647,157.801 599.5,193.5C 599.333,227.167 599.167,260.833 599,294.5C 598.506,301.808 596.839,308.808 594,315.5C 590.995,319.087 587.162,321.254 582.5,322C 578.168,322.583 573.835,323.083 569.5,323.5C 569.5,239.833 569.5,156.167 569.5,72.5 Z"/></g>
<g><path style="opacity:0.985" fill="#000000" d="M 886.5,396.5 C 880.167,396.5 873.833,396.5 867.5,396.5C 848.226,392.773 832.06,383.44 819,368.5C 816.854,375.769 815.02,383.102 813.5,390.5C 782.833,390.5 752.167,390.5 721.5,390.5C 721.5,262.167 721.5,133.833 721.5,5.5C 754.167,5.5 786.833,5.5 819.5,5.5C 819.333,34.8352 819.5,64.1686 820,93.5C 840.533,72.4353 865.366,64.602 894.5,70C 926.755,75.5889 943.255,94.7556 944,127.5C 944.667,192.833 944.667,258.167 944,323.5C 945.291,364.361 926.124,388.694 886.5,396.5 Z M 830.5,125.5 C 841.111,126.622 846.278,132.622 846,143.5C 846.667,202.833 846.667,262.167 846,321.5C 845.597,326.446 844.264,331.113 842,335.5C 835.183,340.746 828.85,340.079 823,333.5C 821.528,329.277 820.528,324.943 820,320.5C 819.333,261.5 819.333,202.5 820,143.5C 819.211,134.715 822.711,128.715 830.5,125.5 Z"/></g>
</svg>