<?xml version="1.0" encoding="UTF-8"?>
<!DOCTYPE svg PUBLIC "-//W3C//DTD SVG 1.1//EN" "http://www.w3.org/Graphics/SVG/1.1/DTD/svg11.dtd">
<svg xmlns="http://www.w3.org/2000/svg" version="1.1" width="512px" height="512px" style="shape-rendering:geometricPrecision; text-rendering:geometricPrecision; image-rendering:optimizeQuality; fill-rule:evenodd; clip-rule:evenodd" xmlns:xlink="http://www.w3.org/1999/xlink">
<g><path style="opacity:0.969" fill="#000000" d="M 58.5,57.5 C 189.834,57.3333 321.167,57.5 452.5,58C 470.667,61.5 481.5,72.3333 485,90.5C 485.667,179.167 485.667,267.833 485,356.5C 481.5,374.667 470.667,385.5 452.5,389C 321.167,389.667 189.833,389.667 58.5,389C 40.3333,385.5 29.5,374.667 26,356.5C 25.3333,267.833 25.3333,179.167 26,90.5C 29.6802,72.3205 40.5136,61.3205 58.5,57.5 Z M 62.5,90.5 C 191.914,90.0036 321.247,90.5036 450.5,92C 451.126,92.7504 451.626,93.5838 452,94.5C 452.167,137.5 452.333,180.5 452.5,223.5C 452.662,267.249 452.162,310.916 451,354.5C 450.25,355.126 449.416,355.626 448.5,356C 384.167,356.167 319.833,356.333 255.5,356.5C 190.419,356.663 125.419,356.163 60.5,355C 59.8742,354.25 59.3742,353.416 59,352.5C 58.3333,266.5 58.3333,180.5 59,94.5C 59.6897,92.6498 60.8564,91.3164 62.5,90.5 Z"/></g>
<g><path style="opacity:0.965" fill="#000000" d="M 143.5,420.5 C 218.167,420.333 292.834,420.5 367.5,421C 378.691,426.639 381.525,435.139 376,446.5C 373.222,449.807 369.722,451.974 365.5,453C 292.167,453.667 218.833,453.667 145.5,453C 133.039,448.297 129.539,439.797 135,427.5C 137.441,424.546 140.275,422.213 143.5,420.5 Z"/></g>
</svg>
