<?xml version="1.0" encoding="UTF-8"?>
<!DOCTYPE svg PUBLIC "-//W3C//DTD SVG 1.1//EN" "http://www.w3.org/Graphics/SVG/1.1/DTD/svg11.dtd">
<svg xmlns="http://www.w3.org/2000/svg" version="1.1" width="512px" height="512px" style="shape-rendering:geometricPrecision; text-rendering:geometricPrecision; image-rendering:optimizeQuality; fill-rule:evenodd; clip-rule:evenodd" xmlns:xlink="http://www.w3.org/1999/xlink">
<g><path style="opacity:0.975" fill="#000000" d="M 395.5,23.5 C 417.046,21.0132 431.879,29.6799 440,49.5C 445.146,74.2274 449.646,99.0608 453.5,124C 452.503,143.671 442.503,156.004 423.5,161C 362.5,172.667 301.5,184.333 240.5,196C 311.167,196.333 381.833,196.667 452.5,197C 457.598,198.433 461.098,201.6 463,206.5C 463.667,283.5 463.667,360.5 463,437.5C 456.069,464.431 438.902,480.264 411.5,485C 307.5,485.667 203.5,485.667 99.5,485C 72.0889,480.255 54.9222,464.422 48,437.5C 47.6667,363.167 47.3333,288.833 47,214.5C 41.804,190.49 37.6374,166.323 34.5,142C 36.1788,111.299 51.8455,91.966 81.5,84C 186.361,64.1269 291.028,43.9602 395.5,23.5 Z M 399.5,56.5 C 401.857,56.3367 404.19,56.5034 406.5,57C 407.126,57.7504 407.626,58.5838 408,59.5C 412.295,80.6397 416.461,101.806 420.5,123C 420.192,126.641 418.192,128.641 414.5,129C 393.841,132.943 373.175,136.776 352.5,140.5C 360.188,114.6 368.188,88.7669 376.5,63C 376.905,62.0546 377.572,61.3879 378.5,61C 385.673,59.6674 392.673,58.1674 399.5,56.5 Z M 336.5,68.5 C 337.5,68.5 338.5,68.5 339.5,68.5C 331.634,94.9607 323.3,121.294 314.5,147.5C 292.602,152.346 270.602,156.68 248.5,160.5C 256.357,134.094 264.524,107.761 273,81.5C 294.251,77.1007 315.417,72.7674 336.5,68.5 Z M 231.5,88.5 C 232.833,88.5 234.167,88.5 235.5,88.5C 227.643,114.906 219.476,141.239 211,167.5C 188.856,172.365 166.689,176.365 144.5,179.5C 152.833,153.5 161.167,127.5 169.5,101.5C 190.271,97.1469 210.937,92.8135 231.5,88.5 Z M 126.5,108.5 C 128.527,108.338 130.527,108.505 132.5,109C 124.073,134.78 115.74,160.614 107.5,186.5C 106.975,187.192 106.308,187.692 105.5,188C 95.8202,189.835 86.1535,191.669 76.5,193.5C 73.7337,178.501 70.9003,163.501 68,148.5C 65.6426,133.377 71.4759,122.877 85.5,117C 99.3445,114.365 113.011,111.531 126.5,108.5 Z M 79.5,229.5 C 196.833,229.5 314.167,229.5 431.5,229.5C 431.667,294.834 431.5,360.168 431,425.5C 429.962,439.868 422.462,448.701 408.5,452C 306.5,452.667 204.5,452.667 102.5,452C 88.5083,448.675 81.0083,439.842 80,425.5C 79.5,360.168 79.3333,294.834 79.5,229.5 Z"/></g>
</svg>
