<?xml version="1.0" encoding="UTF-8"?>
<!DOCTYPE svg PUBLIC "-//W3C//DTD SVG 1.1//EN" "http://www.w3.org/Graphics/SVG/1.1/DTD/svg11.dtd">
<svg xmlns="http://www.w3.org/2000/svg" version="1.1" width="512px" height="512px" style="shape-rendering:geometricPrecision; text-rendering:geometricPrecision; image-rendering:optimizeQuality; fill-rule:evenodd; clip-rule:evenodd" xmlns:xlink="http://www.w3.org/1999/xlink">
<g><path style="opacity:0.951" fill="#000000" d="M 248.5,24.5 C 267.399,22.9732 284.399,27.8065 299.5,39C 309.599,47.7666 320.265,55.7666 331.5,63C 369.271,92.1216 407.271,120.788 445.5,149C 458.179,160.016 465.679,173.849 468,190.5C 468.667,270.5 468.667,350.5 468,430.5C 462.392,460.775 444.559,479.275 414.5,486C 308.5,486.667 202.5,486.667 96.5,486C 66.4501,479.283 48.6168,460.783 43,430.5C 42.3333,350.5 42.3333,270.5 43,190.5C 45.3211,173.849 52.8211,160.016 65.5,149C 113.162,113.022 161.162,77.3554 209.5,42C 220.351,31.4363 233.351,25.6029 248.5,24.5 Z M 251.5,62.5 C 255.897,62.4246 260.23,62.9246 264.5,64C 267.371,65.9345 270.371,67.6012 273.5,69C 322.309,105.993 371.309,142.66 420.5,179C 424.84,183.85 428.007,189.35 430,195.5C 430.667,272.167 430.667,348.833 430,425.5C 425.425,439.878 415.592,447.711 400.5,449C 303.833,449.667 207.167,449.667 110.5,449C 106.045,448.736 101.711,447.902 97.5,446.5C 95.0827,443.917 92.2493,441.917 89,440.5C 86.6667,436.833 84.3333,433.167 82,429.5C 80.8448,389.878 80.3448,350.212 80.5,310.5C 80.6667,272.167 80.8333,233.833 81,195.5C 82.9933,189.35 86.1599,183.85 90.5,179C 139.691,142.66 188.691,105.993 237.5,69C 241.903,66.0547 246.569,63.8881 251.5,62.5 Z"/></g>
<g><path style="opacity:0.937" fill="#000000" d="M 199.5,376.5 C 236.835,376.333 274.168,376.5 311.5,377C 324.896,385.542 327.062,396.375 318,409.5C 315.742,411.43 313.242,412.93 310.5,414C 273.833,414.667 237.167,414.667 200.5,414C 186.552,406.63 183.718,396.13 192,382.5C 194.399,380.256 196.899,378.256 199.5,376.5 Z"/></g>
</svg>
