<?xml version="1.0" encoding="UTF-8"?>
<!DOCTYPE svg PUBLIC "-//W3C//DTD SVG 1.1//EN" "http://www.w3.org/Graphics/SVG/1.1/DTD/svg11.dtd">
<svg xmlns="http://www.w3.org/2000/svg" version="1.1" width="512px" height="512px" style="shape-rendering:geometricPrecision; text-rendering:geometricPrecision; image-rendering:optimizeQuality; fill-rule:evenodd; clip-rule:evenodd" xmlns:xlink="http://www.w3.org/1999/xlink">
<g><path style="opacity:0.965" fill="#000000" d="M 243.5,25.5 C 336.849,24.5732 407.683,63.5732 456,142.5C 495.307,217.832 495.307,293.165 456,368.5C 410.539,443.339 343.705,482.339 255.5,485.5C 167.28,482.333 100.446,443.333 55,368.5C 21.3949,305.238 16.7282,239.905 41,172.5C 71.4347,99.4033 124.935,52.5699 201.5,32C 215.525,29.0219 229.525,26.8552 243.5,25.5 Z M 244.5,58.5 C 320.543,57.4327 379.71,88.0994 422,150.5C 462.667,220.5 462.667,290.5 422,360.5C 416.817,368.195 411.151,375.528 405,382.5C 365.022,315.096 305.855,285.929 227.5,295C 173.538,305.649 133.038,334.816 106,382.5C 66.5568,335.076 51.8901,280.742 62,219.5C 78.9039,144.601 123.404,94.1009 195.5,68C 211.642,63.0912 227.975,59.9245 244.5,58.5 Z M 246.5,133.5 C 282.493,131.902 304.66,148.569 313,183.5C 314.717,218.563 298.55,240.396 264.5,249C 229.056,251.029 206.889,234.862 198,200.5C 196.085,164.973 212.252,142.639 246.5,133.5 Z M 248.5,325.5 C 308.413,325.853 351.913,352.52 379,405.5C 379.667,406.5 379.667,407.5 379,408.5C 326.265,449.315 267.432,461.481 202.5,445C 175.671,437.759 152.004,425.092 131.5,407C 155.285,358.056 194.285,330.889 248.5,325.5 Z"/></g>
<g><path style="opacity:0.964" fill="#000000" d="M 244.5,100.5 C 283.02,98.0115 312.854,112.678 334,144.5C 354.879,186.008 349.713,223.842 318.5,258C 284.569,286.063 247.902,290.063 208.5,270C 171.517,244.497 158.017,209.664 168,165.5C 180.82,128.843 206.32,107.176 244.5,100.5 Z M 246.5,133.5 C 212.252,142.639 196.085,164.973 198,200.5C 206.889,234.862 229.056,251.029 264.5,249C 298.55,240.396 314.717,218.563 313,183.5C 304.66,148.569 282.493,131.902 246.5,133.5 Z"/></g>
</svg>
