<?xml version="1.0" encoding="UTF-8"?>
<!DOCTYPE svg PUBLIC "-//W3C//DTD SVG 1.1//EN" "http://www.w3.org/Graphics/SVG/1.1/DTD/svg11.dtd">
<svg xmlns="http://www.w3.org/2000/svg" version="1.1" width="512px" height="512px" style="shape-rendering:geometricPrecision; text-rendering:geometricPrecision; image-rendering:optimizeQuality; fill-rule:evenodd; clip-rule:evenodd" xmlns:xlink="http://www.w3.org/1999/xlink">
<g><path style="opacity:0.971" fill="#000000" d="M 106.5,36.5 C 205.834,36.3333 305.167,36.5 404.5,37C 443.667,44.1667 466.833,67.3333 474,106.5C 474.667,162.167 474.667,217.833 474,273.5C 470.24,288.925 460.74,298.759 445.5,303C 412.502,303.5 379.502,303.667 346.5,303.5C 346.667,350.168 346.5,396.835 346,443.5C 339.017,466.583 323.517,476.416 299.5,473C 296.007,472.058 292.674,470.725 289.5,469C 258.882,446.05 228.548,422.716 198.5,399C 196.481,397.134 194.148,395.967 191.5,395.5C 190.5,395.667 189.5,395.833 188.5,396C 156.068,421.768 123.068,446.768 89.5,471C 62.9662,478.757 45.4662,469.59 37,443.5C 36.3333,331.167 36.3333,218.833 37,106.5C 44.3423,67.3248 67.5089,43.9914 106.5,36.5 Z M 109.5,69.5 C 182.501,69.3333 255.501,69.5 328.5,70C 320.12,81.8027 315.286,94.9693 314,109.5C 313.667,219.167 313.333,328.833 313,438.5C 310.373,440.988 307.54,441.155 304.5,439C 274.119,414.951 243.452,391.284 212.5,368C 198.5,359.333 184.5,359.333 170.5,368C 139.833,391.667 109.167,415.333 78.5,439C 75.4603,441.155 72.627,440.988 70,438.5C 69.3333,328.833 69.3333,219.167 70,109.5C 74.6805,87.6535 87.8471,74.3201 109.5,69.5 Z M 386.5,69.5 C 413.086,68.0295 430.919,79.6962 440,104.5C 441.645,159.13 441.979,213.796 441,268.5C 439.829,269.893 438.329,270.727 436.5,271C 406.502,271.5 376.502,271.667 346.5,271.5C 346.333,218.166 346.5,164.832 347,111.5C 351.489,89.1816 364.656,75.1816 386.5,69.5 Z"/></g>
</svg>
