<?xml version="1.0" encoding="UTF-8"?>
<!DOCTYPE svg PUBLIC "-//W3C//DTD SVG 1.1//EN" "http://www.w3.org/Graphics/SVG/1.1/DTD/svg11.dtd">
<svg xmlns="http://www.w3.org/2000/svg" version="1.1" width="512px" height="512px" style="shape-rendering:geometricPrecision; text-rendering:geometricPrecision; image-rendering:optimizeQuality; fill-rule:evenodd; clip-rule:evenodd" xmlns:xlink="http://www.w3.org/1999/xlink">
<g><path style="opacity:0.962" fill="#000000" d="M 234.5,-0.5 C 248.5,-0.5 262.5,-0.5 276.5,-0.5C 361.629,11.1298 421.796,56.1298 457,134.5C 481.73,200.473 476.73,264.14 442,325.5C 424.933,354.963 404.933,382.296 382,407.5C 349.374,440.798 315.541,472.631 280.5,503C 275.288,506.939 269.621,509.773 263.5,511.5C 258.167,511.5 252.833,511.5 247.5,511.5C 241.379,509.773 235.712,506.939 230.5,503C 195.459,472.631 161.626,440.798 129,407.5C 106.067,382.296 86.0673,354.963 69,325.5C 28.0815,250.926 28.4149,176.593 70,102.5C 108.92,42.9467 163.753,8.61336 234.5,-0.5 Z M 236.5,30.5 C 307.981,26.4999 365.147,52.8333 408,109.5C 450.233,175.542 452.233,242.875 414,311.5C 388.543,353.14 357.71,390.64 321.5,424C 301.167,442.333 280.833,460.667 260.5,479C 257.167,481 253.833,481 250.5,479C 217.46,450.633 185.627,420.799 155,389.5C 126.927,359.745 103.927,326.411 86,289.5C 58.0548,220.453 66.7215,156.453 112,97.5C 145.026,59.5683 186.526,37.2349 236.5,30.5 Z M 254.5,142.5 C 294.37,146.037 316.37,167.704 320.5,207.5C 318.543,240.286 301.877,261.453 270.5,271C 230.47,276.405 204.303,259.905 192,221.5C 187.589,187.818 200.422,163.318 230.5,148C 238.391,145.059 246.391,143.226 254.5,142.5 Z"/></g>
<g><path style="opacity:0.961" fill="#000000" d="M 254.5,111.5 C 303.607,114.451 335.107,139.451 349,186.5C 356.857,237.626 337.69,274.46 291.5,297C 245.443,312.086 207.276,300.919 177,263.5C 155.283,229.308 153.95,194.308 173,158.5C 192.235,129.102 219.401,113.436 254.5,111.5 Z M 254.5,142.5 C 246.391,143.226 238.391,145.059 230.5,148C 200.422,163.318 187.589,187.818 192,221.5C 204.303,259.905 230.47,276.405 270.5,271C 301.877,261.453 318.543,240.286 320.5,207.5C 316.37,167.704 294.37,146.037 254.5,142.5 Z"/></g>
</svg>
