<?xml version="1.0" encoding="UTF-8"?>
<!DOCTYPE svg PUBLIC "-//W3C//DTD SVG 1.1//EN" "http://www.w3.org/Graphics/SVG/1.1/DTD/svg11.dtd">
<svg xmlns="http://www.w3.org/2000/svg" version="1.1" width="512px" height="512px" style="shape-rendering:geometricPrecision; text-rendering:geometricPrecision; image-rendering:optimizeQuality; fill-rule:evenodd; clip-rule:evenodd" xmlns:xlink="http://www.w3.org/1999/xlink">
<g><path style="opacity:0.984" fill="#000000" d="M 249.5,31.5 C 258.888,29.4496 266.054,32.4496 271,40.5C 280.779,57.0566 289.779,74.0566 298,91.5C 303.852,104.234 306.519,117.568 306,131.5C 302.785,152.05 291.452,166.05 272,173.5C 271.501,179.491 271.334,185.491 271.5,191.5C 317.501,191.333 363.501,191.5 409.5,192C 429.333,197.167 441.833,209.667 447,229.5C 447.5,302.166 447.667,374.833 447.5,447.5C 454.841,447.334 462.174,447.5 469.5,448C 478.482,452.473 481.649,459.64 479,469.5C 477.167,474 474,477.167 469.5,479C 326.833,479.667 184.167,479.667 41.5,479C 32.5178,474.527 29.3511,467.36 32,457.5C 33.8333,453 37,449.833 41.5,448C 48.8258,447.5 56.1591,447.334 63.5,447.5C 63.3333,374.833 63.5,302.166 64,229.5C 69.1667,209.667 81.6667,197.167 101.5,192C 147.499,191.5 193.499,191.333 239.5,191.5C 239.666,185.491 239.499,179.491 239,173.5C 209.224,159.879 198.89,137.212 208,105.5C 216.283,82.6016 226.95,60.9349 240,40.5C 242.406,36.5915 245.572,33.5915 249.5,31.5 Z M 254.5,81.5 C 263.907,94.4973 270.24,108.997 273.5,125C 270.099,141.034 260.765,146.034 245.5,140C 237.198,132.572 235.364,123.739 240,113.5C 244.571,102.693 249.404,92.0262 254.5,81.5 Z M 111.5,223.5 C 209.202,223.012 306.869,223.512 404.5,225C 411.053,227.601 414.553,232.434 415,239.5C 415.667,266.5 415.667,293.5 415,320.5C 393.747,306.457 372.581,292.291 351.5,278C 334.833,269.333 318.167,269.333 301.5,278C 287.542,288.956 273.875,300.29 260.5,312C 252.738,318.806 244.738,319.139 236.5,313C 223.5,302 210.5,291 197.5,280C 179.672,269.124 161.672,268.791 143.5,279C 127.667,290.167 111.833,301.333 96,312.5C 95.3333,288.167 95.3333,263.833 96,239.5C 97.3459,230.322 102.513,224.989 111.5,223.5 Z M 166.5,304.5 C 171.725,304.297 176.392,305.797 180.5,309C 194.586,321.756 209.252,333.756 224.5,345C 241.502,352.812 258.169,352.146 274.5,343C 289.5,330.667 304.5,318.333 319.5,306C 324.167,304 328.833,304 333.5,306C 360.581,324.291 387.747,342.457 415,360.5C 415.5,389.498 415.667,418.498 415.5,447.5C 308.833,447.5 202.167,447.5 95.5,447.5C 95.1668,415.826 95.5001,384.16 96.5,352.5C 119.621,336.021 142.954,320.021 166.5,304.5 Z"/></g>
</svg>
